<?xml version="1.0" standalone="no"?>
<!DOCTYPE svg PUBLIC "-//W3C//DTD SVG 20010904//EN"
 "http://www.w3.org/TR/2001/REC-SVG-20010904/DTD/svg10.dtd">
<svg version="1.0" xmlns="http://www.w3.org/2000/svg"
 width="500.000000pt" height="500.000000pt" viewBox="0 0 500.000000 500.000000"
 preserveAspectRatio="xMidYMid meet">
<metadata>
Created by potrace 1.16, written by Peter Selinger 2001-2019
</metadata>
<g transform="translate(0.000000,500.000000) scale(0.100000,-0.100000)"
fill="#000000" stroke="none">
<path d="M2275 4074 c-297 -66 -562 -260 -711 -521 -42 -74 -94 -197 -108
-255 l-6 -28 663 0 c657 0 665 0 691 -21 21 -17 26 -29 26 -65 0 -37 -6 -51
-29 -75 l-29 -29 -319 0 -318 0 479 -479 480 -480 29 17 c16 9 62 48 104 86
l75 69 -257 257 -257 257 35 7 c59 11 153 64 197 112 67 73 93 142 98 254 5
112 -16 180 -74 248 -42 49 -133 96 -218 111 -37 7 -234 11 -520 11 l-461 1
76 72 c167 158 350 231 579 230 151 -1 243 -22 375 -87 169 -84 292 -209 375
-381 68 -141 84 -212 83 -370 -1 -153 -22 -247 -82 -366 l-39 -77 87 -86 87
-86 31 52 c372 617 68 1395 -627 1605 -75 23 -106 26 -265 29 -136 3 -197 0
-250 -12z"/>
<path d="M1423 3124 c-14 -38 5 -280 31 -379 97 -375 397 -673 774 -772 122
-31 306 -41 431 -23 117 17 348 98 339 118 -2 4 -220 223 -485 486 l-483 479
0 -189 0 -189 238 -239 237 -238 -75 6 c-202 17 -366 92 -513 235 -115 111
-183 226 -229 388 -17 62 -22 105 -23 205 l0 128 -118 0 c-98 0 -119 -3 -124
-16z"/>
</g>
</svg>
